<svg xmlns="http://www.w3.org/2000/svg" viewBox="0 0 636 325">
<defs>
<filter id="ZetaShadow" color-interpolation-filters="sRGB"><feGaussianBlur stdDeviation="2.5"/></filter>
<filter id="ModeShadow" color-interpolation-filters="sRGB"><feGaussianBlur stdDeviation="6"/></filter>
<linearGradient id="ZetaGradient" gradientUnits="userSpaceOnUse" x1="64" y1="37" x2="461" y2="181"><stop stop-color="#f4a5c2" offset="0"/><stop stop-color="#f49bc2" offset="1"/></linearGradient>
</defs>
<g fill-opacity="0.7" filter="url(#ModeShadow)" fill="#3c3c3c">
<path d="m26,18.9c-3.7,10.9-6.07,23.4-2.75,34.7,5.04,13,21,15.4,33.3,15.2,28-0.924,55.4-7.22,82.9-11.8-21.7,36.1-49,68.3-72.9,103-16.6,24.5-36.4,47.7-46.8,75.7-3.76,11.6-1.35,24.9,5.3,35,47.2,0.553,94.4,1.81,142,1.88,16.9-1.71,28.7-19.5,25.8-35.9-0.5-6.32-2.15-12.4-4.88-18.2-35.1,16.1-76.1,17.9-113,14.2,13.9-34.3,36.7-64.5,58.5-94.2,20.2-25.9,41.5-51.4,56.3-80.9,5.23-9.56,5.21-23.6-4.56-30.3-12.9-9.35-29.8-3.95-44.4-4.44-31.4,1.65-63.2,3.03-94.4-1.99-6.42-0.967-12.8-2.16-19.1-3.54l-0.365,0.931-0.26,0.663z" />
<path d="m278,92c-24.4-0.197-47.7,13.1-60.3,33.8-16.7,25.7-18.2,59.1-10.4,88.2,4.56,17.5,17.8,32.8,35.5,37.5,27.8,8.23,60.9,2.54,81.3-18.8,7.93-8.79,12.7-23.4,5.69-34.1-5.93-7.85-16.4-10.6-25.8-10.3,1,16.4-8.8,34.8-26.2,37.1-11.1,2.28-24.7-1.65-29-13.2-4.02-8.86-5.25-18.9-5.41-28.6,26,2.51,54.9,0.929,76.4-15.3,16-12.1,17.6-35.9,9.34-52.9-9.54-18.1-32.2-24-51.2-23.3zm-8.16,28.6c10.1-0.449,23.9,2.88,26.3,14.2,0.942,5.1,0.919,11.8-2,15.7-15.3,7.45-34,8.34-50.4,5.25,0.495-9.51,1.6-19.7,5.81-28.1,5.86-4.37,12.9-6.94,20.2-7.03z" />
<path d="m391,48.6c-6.79,0.361-13.3,2.56-19.3,5.62,4.43,14.5,5.86,29.7,5.38,44.8-9.37-1.24-20.6,0.455-25.6,9.47-4.08,7.5-2.2,17,2.56,23.8,6.8-3.41,14.4-4.95,21.9-5.5,0.0472,31-10.1,62.5-1.69,93.1,4.21,16.8,18.2,30.6,35.4,33.5,15.4,2.84,33.9,2.99,46.3-7.82,7.66-7.57,5.35-20.7-0.438-28.8-11.1,6.29-26.8,11.7-37.9,2.66-11.4-11.2-10.2-28.7-10.1-43.5,0.435-16.4,3.05-32.6,5.87-48.8,13.8,2.31,30.4,7.84,42.4-2.25,9.77-6.91,8.31-21.3,2.41-30.3-13.4,4.2-27.5,6.46-41.6,6.63,0.34-13.3,3.89-27.7-1.66-40.4-4.24-8.89-14.2-13.4-23.8-12.3z" />
<path d="m541,91.9c-20.4-0.184-40.9,6.81-55.1,21.6-7.66,8.5-12.3,22.7-5.5,33,32.3,16.8,28.5-22.2,50.2-25.9,10.7-2.2,23.8,1.6,28,12.7,3.89,8.57,5.07,18.2,5.23,27.7-25.2-2.43-53.1-0.898-73.9,14.8-15.4,11.7-17,34.7-9.03,51.2,9.22,17.5,31.1,29,49.5,28.3,13.5,0.109,30.6-6.02,41.7-13.4,0.826,2.49,1.95,4.89,3.47,7.16,7.85,8.93,17.4,6.41,27.8,4.59,3.41-1.33,10.6-0.921,7.49-6.22-7.21-39.7-3.37-82.2-12.1-116-4.41-16.9-17.2-31.7-34.3-36.3-7.57-2.24-15.5-3.4-23.5-3.47zm4.08,94.4c6.27-0.0942,12.5,0.48,18.5,1.6-0.478,9.2-1.55,19-5.62,27.2-5.66,4.22-12.5,6.71-19.6,6.8-9.77,0.434-23.1-2.79-25.5-13.7-0.911-4.93-0.888-11.4,1.93-15.2,9.27-4.5,19.8-6.52,30.2-6.68z" />
</g><g fill-opacity="0.7" transform="matrix(0.99548571,-0.09491685,0.0949169,0.9954852,-178.92762,-512.82659)" filter="url(#ZetaShadow)" fill="#646464">
<path d="m540,691c-15.7,9.01-29.6,21-43.3,32.8-29.6,26.7-55.2,58.1-77.2,91.5,6.27-28.9,17.3-73.1,36.5-102,2.4-3.65,6.17-7.77,7.02-11.7,0.843-3.89,0.425-7.66-2.34-9.22-3.17-1.78-8.62,0.897-10.4,3.2-1.71,2.17-3.41,4.36-5.1,6.56-37.7,49.2-70.2,104-116,132-19.1,10.3-42.9,16.4-63.8,8.4-17.9-8.11-24.6-32-16.4-49.1,1.89-5.16,7.45-6.92,10.6-10.8,2.51-4.97-4.42-11.1-8.56-6.66-27.4,14.2-30.6,57.3-7,76.5,17.8,14.6,43.3,12.1,63.9,5.91,40.9-12.9,71.3-45.2,97.3-77.9,3.94-4.96,7.75-10.1,11.5-15.2-10.9,30.2-17.9,61.9-20.9,93.8,2.31,6.57,10.9,3.82,13.8-0.812,7.92-10.5,11.8-23.3,19.7-33.9,19.9-31.6,43.4-61.1,70.7-86.7-16.7,30-26.3,64.6-24.4,99.2,0.743,10.9,6.45,24.3,18.3,26.3,12.8,0.328,21.2-11.1,28.7-19.8,2.84-3.32,6.93-10.1,1.31-12.8-4.23-2.22-7.66,1.76-9.28,5.25-3.34,4.24-9.8,10.9-15.4,7.12-7.05-8.59-5.3-21-5.18-31.5,2.96-37.3,18.4-73.6,42.9-102,3.13-4.3,10.8-7.63,9.71-13.8-0.764-2.66-3.34-4.93-6.25-4.5z" />
<path d="m566,791c-16.7,1.05-27.2,16.7-32.9,30.8-4.86,11.9-6.95,28.1,2.97,37.9,9.16,7.26,21.9,1.5,28.6-6.28,13-12.8,21.3-31.9,17.7-50.2-2.12-7.02-8.7-12.7-16.3-12.2zm-5.72,16.3c6.42,0.385,6.8,8.85,6.53,13.7-0.735,10.2-4.41,24-15.8,26.4-6.52-0.96-6-9.38-5.75-14.3,0.486-9.93,3.94-23.4,15.1-25.8z" />
<path d="m733,667c-19.4,1.67-33.2,17.5-44.9,31.6-21.8,28.3-37.2,61-49.6,94.3-16.5-4.61-33.1,6.78-41.8,20.2-7.89,12.3-12.2,28.2-7.38,42.4,3.95,8.51,16.3,11.3,23,4.41,4.61-3.16,8.65-7.21,12.3-11.3-1.03,7,3.15,16.2,11.3,15.4,9.71-0.89,16.3-9.5,21.6-16.8,3.04-4.3-2.04-11.1-6.88-7.72-3.44,1.99-4.31,6.62-7.84,8.34-1.54-10.2,2.85-19.9,4.47-29.9,10.4-41.4,25.5-83.1,53.1-116,7.79-8.94,18.9-18.4,31.6-16.9,4.49,1.15,1.06,7.74,6.19,8.41,5.11,1.04,7.92-4.38,8.44-8.56,2.42-7.74-2.58-17.9-11.6-17.3-0.656-0.0404-1.31-0.0431-1.97,0zm-104,137c2.7-0.278,7.24,2.11,4.44,5.06-4.91,14.6-11.9,30.2-25.3,38.5-4.99-0.964-3.15-7.98-3.13-11.6,1.01-13.4,8.78-30.7,24-32z" />
<path d="m701,792c-16.4,1.19-26.6,16.9-32,30.9-4.36,11.3-7.49,26.4,1.6,36.2,10.4,9.22,26.9,4.08,35.4-5.45,4.1-2.58,8.62-9.57,3.23-13.2-6.15-2.87-8.61,5.46-13.6,7.12-4.29,2.72-11.9,2.21-12.6-3.97-0.796-4.36-1.63-10.4,0.469-13.9,11.7-3.55,27-6.39,32.7-18.8,3.18-9.38-5.6-19.7-15.2-19zm-4.72,14.5c4.12,0.759,2.75,7.39-0.938,8.09-2.97,1.77-7.55,3.42-10.3,3.34,1.63-5.15,5.1-11.3,11.3-11.4z" />
</g><g stroke="#f0f0f0" stroke-miterlimit="4" stroke-dasharray="none" stroke-width="10" fill="url(#ZetaGradient)">
<path stroke-linejoin="round" d="m14,11.9c-3.7,10.9-6.07,23.4-2.75,34.7,5.04,13,21,15.4,33.3,15.2,28-0.924,55.4-7.22,82.9-11.8-21.7,36.1-49,68.3-72.9,103-16.6,24.5-36.4,47.7-46.8,75.7-3.76,11.6-1.35,24.9,5.3,35,47.2,0.553,94.4,1.81,142,1.88,16.9-1.71,28.7-19.5,25.8-35.9-0.5-6.32-2.15-12.4-4.88-18.2-35.1,16.1-76.1,17.9-113,14.2,13.9-34.3,36.7-64.5,58.5-94.2,20.2-25.9,41.5-51.4,56.3-80.9,5.23-9.56,5.21-23.6-4.56-30.3-12.9-9.35-29.8-3.95-44.4-4.44-31.4,1.65-63.2,3.03-94.4-1.99-6.42-0.967-12.8-2.16-19.1-3.54l-0.365,0.931-0.26,0.663z" />
<path stroke-linejoin="round" d="m266,85c-24.4-0.197-47.7,13.1-60.3,33.8-16.7,25.7-18.2,59.1-10.4,88.2,4.56,17.5,17.8,32.8,35.5,37.5,27.8,8.23,60.9,2.54,81.3-18.8,7.93-8.79,12.7-23.4,5.69-34.1-5.93-7.85-16.4-10.6-25.8-10.3,1,16.4-8.8,34.8-26.2,37.1-11.1,2.28-24.7-1.65-29-13.2-4.02-8.86-5.25-18.9-5.41-28.6,26,2.51,54.9,0.929,76.4-15.3,16-12.1,17.6-35.9,9.34-52.9-9.54-18.1-32.2-24-51.3-23.3zm-8.16,28.6c10.1-0.449,23.9,2.88,26.3,14.2,0.942,5.1,0.919,11.8-2,15.7-15.3,7.45-34,8.34-50.4,5.25,0.495-9.51,1.6-19.7,5.81-28.1,5.86-4.37,12.9-6.94,20.3-7.03z" />
<path stroke-linejoin="round" d="m379,41.6c-6.79,0.361-13.3,2.56-19.3,5.62,4.43,14.5,5.86,29.7,5.38,44.8-9.37-1.24-20.6,0.455-25.6,9.47-4.08,7.5-2.2,17,2.56,23.8,6.8-3.41,14.4-4.95,21.9-5.5,0.0472,31-10.1,62.5-1.69,93.1,4.21,16.8,18.2,30.6,35.4,33.5,15.4,2.84,33.9,2.99,46.3-7.82,7.66-7.57,5.35-20.7-0.438-28.8-11.1,6.29-26.8,11.7-37.9,2.66-11.4-11.2-10.2-28.7-10.1-43.5,0.435-16.4,3.05-32.6,5.88-48.8,13.8,2.31,30.4,7.84,42.4-2.25,9.77-6.91,8.31-21.3,2.41-30.3-13.4,4.2-27.5,6.46-41.6,6.62,0.34-13.3,3.89-27.7-1.66-40.4-4.24-8.89-14.2-13.4-23.8-12.3z" />
<path stroke-linejoin="round" d="m529,84.9c-20.4-0.184-40.9,6.81-55.1,21.6-7.66,8.5-12.3,22.7-5.5,33,32.3,16.8,28.5-22.2,50.2-25.9,10.7-2.2,23.8,1.6,28,12.7,3.89,8.57,5.07,18.2,5.23,27.7-25.2-2.43-53.1-0.898-73.9,14.8-15.4,11.7-17,34.7-9.03,51.2,9.22,17.5,31.1,29,49.5,28.3,13.5,0.109,30.6-6.02,41.7-13.4,0.826,2.49,1.95,4.89,3.47,7.16,7.85,8.93,17.4,6.41,27.8,4.59,3.41-1.33,10.6-0.921,7.49-6.22-7.21-39.7-3.37-82.2-12.1-116-4.41-16.9-17.2-31.7-34.3-36.3-7.57-2.24-15.5-3.4-23.5-3.47zm4.08,94.4c6.27-0.0942,12.5,0.48,18.5,1.6-0.478,9.2-1.55,19-5.62,27.2-5.66,4.22-12.5,6.71-19.6,6.8-9.77,0.434-23.1-2.79-25.5-13.7-0.911-4.93-0.888-11.4,1.93-15.2,9.27-4.5,19.8-6.52,30.2-6.68z" />
</g><g fill="#323232">
<path d="m423,122c-14.7,10.5-27.5,23.7-40,36.8-27,29.4-49.5,63.1-68.2,98.4,3.5-29.4,10.3-74.4,26.7-105,2.04-3.86,5.41-8.32,5.88-12.3,0.471-3.95-0.304-7.67-3.2-8.95-3.32-1.47-8.49,1.71-10.1,4.17-1.5,2.33-2.98,4.67-4.45,7.02-32.9,52.5-60,110-103,142-18,12.1-41.1,20.3-62.8,14.4-18.6-6.37-27.6-29.5-21-47.3,1.4-5.32,6.76-7.6,9.52-11.8,2.03-5.18-5.46-10.7-9.16-5.81-25.9,16.8-25,59.9,0.29,76.8,19.1,12.9,44.2,7.92,64.1-0.183,39.5-16.7,66.7-51.7,89.4-86.8,3.45-5.31,6.76-10.7,10-16.2-8.03,31.1-11.9,63.3-11.9,95.4,2.92,6.32,11.3,2.76,13.6-2.11,6.89-11.2,9.57-24.3,16.4-35.7,16.8-33.4,37.4-65,62.1-93-13.8,31.4-20,66.8-14.9,101,1.78,10.8,8.73,23.6,20.8,24.4,12.7-0.884,20-13,26.7-22.4,2.51-3.58,5.95-10.7,0.0934-12.8-4.43-1.81-7.46,2.48-8.74,6.11-2.92,4.54-8.72,11.8-14.6,8.55-7.83-7.88-7.27-20.4-8.15-30.9-0.601-37.4,11.3-75.1,33-105,2.71-4.57,10.1-8.62,8.35-14.7-1.01-2.58-3.8-4.59-6.65-3.89z" />
<path d="m459,219c-16.5,2.63-25.5,19.2-29.8,33.7-3.7,12.3-4.25,28.6,6.55,37.5,9.81,6.35,21.9-0.584,27.9-8.97,11.7-14,18.2-33.8,12.8-51.7-2.77-6.79-9.87-11.9-17.4-10.6zm-4.15,16.8c6.43-0.226,7.61,8.17,7.8,13,0.236,10.2-2.11,24.3-13.3,27.8-6.58-0.338-6.86-8.77-7.08-13.7-0.459-9.93,1.7-23.7,12.5-27.2z" />
<path d="m613,79.1c-19.2,3.51-31.4,20.6-41.7,35.7-19,30.2-31.2,64.3-40.5,98.6-16.9-3.02-32.3,9.9-39.7,24-6.69,13-9.48,29.2-3.32,42.9,4.74,8.1,17.3,9.73,23.3,2.21,4.29-3.59,7.93-8,11.2-12.5-0.357,7.06,4.68,15.8,12.7,14.3,9.58-1.81,15.3-11,19.9-18.7,2.62-4.57-3.08-10.9-7.58-7.03-3.23,2.31-3.66,7-7.02,9.05-2.51-10,0.945-20.1,1.61-30.2,6.47-42.2,17.5-85.2,41.8-121,6.91-9.63,17.1-20.1,29.9-19.9,4.58,0.72,1.79,7.61,6.96,7.78,5.19,0.546,7.47-5.11,7.59-9.32,1.68-7.93-4.26-17.6-13.2-16.1-0.656,0.022-1.31,0.0817-1.96,0.187zm-90,146c2.66-0.533,7.41,1.41,4.9,4.62-3.5,15-8.95,31.2-21.6,40.7-5.06-0.486-3.89-7.65-4.22-11.2-0.265-13.5,5.82-31.4,20.9-34.1z" />
<path d="m593,207c-16.3,2.74-24.9,19.4-28.9,33.8-3.27,11.6-4.95,27,5.03,35.9,11.2,8.19,27.2,1.5,34.7-8.79,3.84-2.96,7.67-10.3,1.96-13.4-6.39-2.27-8.06,6.26-12.9,8.38-4.01,3.11-11.7,3.33-12.9-2.76-1.21-4.27-2.62-10.2-0.853-13.9,11.3-4.64,26.2-8.92,30.8-21.8,2.28-9.64-7.44-19.1-17-17.5zm-3.32,14.9c4.17,0.365,3.44,7.1-0.165,8.15-2.78,2.05-7.19,4.12-9.98,4.31,1.13-5.28,4-11.7,10.1-12.5z" />
</g>
		</svg>
